<svg xmlns="http://www.w3.org/2000/svg" xmlns:xlink="http://www.w3.org/1999/xlink" width="3604.326" height="780.526" viewBox="0 0 3604.326 780.526">
  <defs>
    <style>
      .cls-1 {
        opacity: 0.201;
      }

      .cls-2 {
        opacity: 0.7;
      }

      .cls-2, .cls-4 {
        fill: url(#linear-gradient);
      }

      .cls-3 {
        fill: none;
      }
    </style>
    <linearGradient id="linear-gradient" x1="0.5" x2="0.5" y2="1" gradientUnits="objectBoundingBox">
      <stop offset="0" stop-color="#eaeaef"/>
      <stop offset="1" stop-color="#fff" stop-opacity="0"/>
    </linearGradient>
  </defs>
  <g id="Group_245" data-name="Group 245" transform="translate(1158.077 -284.134)">
    <g id="Products_Sold_Graph" data-name="Products Sold Graph" class="cls-1" transform="translate(-630.49 284.134)">
      <path id="Filled.Graph" class="cls-2" d="M330,764.877V546.706s354.78,143.1,638.25,152.089c306.52-8.71,359.6-69.952,598.354-152.089,204.028-68.461,407.5-87.251,602.793-82.413s364.564,78.793,595.253,86.372c406.961-30.534,614.594-184.911,642.089-249.388v544.74L330,846.259Z" transform="translate(-330 -298.733)"/>
      <path id="Line.Graph" class="cls-3" d="M313,493.785S665.489,640.3,944.192,643.452s385.753-75.606,599.222-149.472,416.4-86.472,603.237-83.989,368.461,79.889,598.022,84,600.945-133.8,642.243-248.748" transform="translate(-310.176 -245.24)"/>
      <circle id="Mar.Ellipse" class="cls-4" cx="12.259" cy="12.259" r="12.259" transform="translate(1219.713 237.499)"/>
      <circle id="Feb.Ellipse" class="cls-4" cx="12.259" cy="12.259" r="12.259" transform="translate(812.05 373.225)"/>
    </g>
    <g id="Products_Sold_Graph-2" data-name="Products Sold Graph" class="cls-1" transform="translate(-776.54 517.134)">
      <path id="Filled.Graph-2" data-name="Filled.Graph" class="cls-2" d="M330,764.877V546.706s354.78,143.1,638.25,152.089c306.52-8.71,359.6-69.952,598.354-152.089,204.028-68.461,407.5-87.251,602.793-82.413s364.564,78.793,595.253,86.372c406.961-30.534,614.594-184.911,642.089-249.388v544.74L330,846.259Z" transform="translate(-330 -298.733)"/>
      <path id="Line.Graph-2" data-name="Line.Graph" class="cls-3" d="M313,493.785S665.489,640.3,944.192,643.452s385.753-75.606,599.222-149.472,416.4-86.472,603.237-83.989,368.461,79.889,598.022,84,600.945-133.8,642.243-248.748" transform="translate(-310.176 -245.24)"/>
      <circle id="Mar.Ellipse-2" data-name="Mar.Ellipse" class="cls-4" cx="12.259" cy="12.259" r="12.259" transform="translate(1219.713 237.499)"/>
    </g>
    <g id="Total_Views_Graph" data-name="Total Views Graph" class="cls-1" transform="translate(-809.944 306.435)">
      <path id="Filled.Graph-3" data-name="Filled.Graph" class="cls-2" d="M330,687.576V354.422S676.273,685.647,960.72,698.112c317.373-2.807,319.975-171.952,598.863-264.548,233.477-72.706,411.633,125.622,606.927,130.459S2496.587,428.1,2763.028,418.319c345.206,14.727,622.208,202.792,643.7,212.9V768.716L330,768.958Z" transform="translate(-328.093 -354.422)"/>
      <path id="Line.Graph-3" data-name="Line.Graph" class="cls-3" d="M312.953,279.164S670,616.493,949.052,619.648s374.473-198.754,598.528-266.824S1966,482.664,2153.067,485.147s366.166-148.686,596.012-144.577,492.633,118.46,637.912,208.663" transform="translate(-312.953 -276.342)"/>
      <circle id="May.Ellipse" class="cls-4" cx="12.259" cy="12.259" r="12.259" transform="translate(2415.346 51.51)"/>
      <circle id="Mar.Ellipse-3" data-name="Mar.Ellipse" class="cls-4" cx="12.259" cy="12.259" r="12.259" transform="translate(1312.312 50.683)"/>
    </g>
    <g id="Total_Views_Graph-2" data-name="Total Views Graph" class="cls-1" transform="translate(-1158.077 416.772)">
      <path id="Filled.Graph-4" data-name="Filled.Graph" class="cls-2" d="M330,687.576V354.422S676.273,685.647,960.72,698.112c317.373-2.807,319.975-171.952,598.863-264.548,233.477-72.706,411.633,125.622,606.927,130.459S2496.587,428.1,2763.028,418.319c345.206,14.727,622.208,202.792,643.7,212.9V768.716L330,768.958Z" transform="translate(-329.243 -354.422)"/>
      <path id="Line.Graph-4" data-name="Line.Graph" class="cls-3" d="M312.953,279.164S670,616.493,949.052,619.648s374.473-198.754,598.528-266.824S1966,482.664,2153.067,485.147s366.166-148.686,596.012-144.577,492.633,118.46,637.912,208.663" transform="translate(-312.953 -276.342)"/>
      <circle id="Apr.Ellipse" class="cls-4" cx="12.259" cy="12.259" r="12.259" transform="translate(1940.062 182.327)"/>
      <circle id="Mar.Ellipse-4" data-name="Mar.Ellipse" class="cls-4" cx="12.259" cy="12.259" r="12.259" transform="translate(1217.624 63.782)"/>
    </g>
  </g>
</svg>
